<svg xmlns="http://www.w3.org/2000/svg" width="910" height="484" preserveAspectRatio="xMidYMax meet"><path fill="#fff" d="M0 0h910v484H0z"/><svg width="858" height="432" x="26" y="26" viewBox="0 0 858 432"><path stroke="#000" stroke-width="12" d="M6 432V0m114 432V0m18 432V0m24 432V0m24 432V0m18 432V0m66 432V0m18 432V0m24 432V0m24 432V0m18 432V0m24 432V0m24 432V0m18 432V0m24 432V0m36 432V0m84 432V0m126 432V0m66 432V0m42 432V0m66 432V0"/><path stroke="#000" stroke-width="6" d="M21 432V0m48 432V0m162 432V0m12 432V0m222 432V0m120 432V0m12 432V0m132 432V0m120 432V0"/><path stroke="#000" stroke-width="18" d="M45 432V0m48 432V0m414 432V0m30 432V0m108 432V0m24 432V0m42 432V0m66 432V0m54 432V0"/><path stroke="#000" stroke-width="24" d="M618 432V0"/></svg></svg>